<mxfile host="app.diagrams.net" modified="2024-05-09T07:26:44.653Z" agent="Mozilla/5.0 (X11; Linux x86_64) AppleWebKit/537.36 (KHTML, like Gecko) Chrome/123.0.0.0 Safari/537.36 Edg/123.0.0.0" etag="2qkytjZ93SCu3oAtyNOn" version="24.3.1" type="github">
  <diagram name="第 1 页" id="ZEIDEolRL19Zt1gOB2dR">
    <mxGraphModel dx="1220" dy="697" grid="1" gridSize="10" guides="1" tooltips="1" connect="1" arrows="1" fold="1" page="1" pageScale="1" pageWidth="300" pageHeight="400" math="0" shadow="0">
      <root>
        <mxCell id="0" />
        <mxCell id="1" parent="0" />
        <mxCell id="FVYLcM5FndVhA9IFcM8y-5" value="" style="rounded=0;whiteSpace=wrap;html=1;fillColor=none;strokeColor=#82b366;" vertex="1" parent="1">
          <mxGeometry x="505" width="525" height="540" as="geometry" />
        </mxCell>
        <mxCell id="FVYLcM5FndVhA9IFcM8y-4" value="" style="rounded=0;whiteSpace=wrap;html=1;fillColor=none;strokeColor=#6c8ebf;" vertex="1" parent="1">
          <mxGeometry width="490" height="430" as="geometry" />
        </mxCell>
        <mxCell id="FVYLcM5FndVhA9IFcM8y-2" value="&lt;div style=&quot;color: rgb(51, 51, 51); font-family: &amp;quot;Droid Sans Mono&amp;quot;, &amp;quot;monospace&amp;quot;, monospace; font-weight: normal; font-size: 14px; line-height: 19px; white-space: pre;&quot;&gt;&lt;div style=&quot;&quot;&gt;&lt;span style=&quot;background-color: rgb(255, 255, 255);&quot;&gt;&lt;span style=&quot;color: rgb(75, 105, 198);&quot;&gt;import&lt;/span&gt;&lt;span style=&quot;color: rgb(51, 51, 51);&quot;&gt; &lt;/span&gt;&lt;span style=&quot;color: rgb(122, 62, 157); font-weight: bold;&quot;&gt;grpc&lt;/span&gt;&lt;/span&gt;&lt;/div&gt;&lt;div style=&quot;&quot;&gt;&lt;span style=&quot;background-color: rgb(255, 255, 255);&quot;&gt;&lt;span style=&quot;color: #4b69c6;&quot;&gt;import&lt;/span&gt;&lt;span style=&quot;color: #333333;&quot;&gt; &lt;/span&gt;&lt;span style=&quot;color: #7a3e9d;font-weight: bold;&quot;&gt;user_service_pb2&lt;/span&gt;&lt;span style=&quot;color: #333333;&quot;&gt; &lt;/span&gt;&lt;span style=&quot;color: #4b69c6;&quot;&gt;as&lt;/span&gt;&lt;span style=&quot;color: #333333;&quot;&gt; &lt;/span&gt;&lt;span style=&quot;color: #7a3e9d;font-weight: bold;&quot;&gt;pb2&lt;/span&gt;&lt;/span&gt;&lt;/div&gt;&lt;div style=&quot;&quot;&gt;&lt;span style=&quot;background-color: rgb(255, 255, 255);&quot;&gt;&lt;span style=&quot;color: #4b69c6;&quot;&gt;import&lt;/span&gt;&lt;span style=&quot;color: #333333;&quot;&gt; &lt;/span&gt;&lt;span style=&quot;color: #7a3e9d;font-weight: bold;&quot;&gt;user_service_pb2_grpc&lt;/span&gt;&lt;span style=&quot;color: #333333;&quot;&gt; &lt;/span&gt;&lt;span style=&quot;color: #4b69c6;&quot;&gt;as&lt;/span&gt;&lt;span style=&quot;color: #333333;&quot;&gt; &lt;/span&gt;&lt;span style=&quot;color: #7a3e9d;font-weight: bold;&quot;&gt;pb2_grpc&lt;/span&gt;&lt;/span&gt;&lt;/div&gt;&lt;div style=&quot;&quot;&gt;&lt;span style=&quot;background-color: rgb(255, 255, 255);&quot;&gt;&lt;span style=&quot;color: #4b69c6;&quot;&gt;import&lt;/span&gt;&lt;span style=&quot;color: #333333;&quot;&gt; &lt;/span&gt;&lt;span style=&quot;color: #7a3e9d;font-weight: bold;&quot;&gt;random&lt;/span&gt;&lt;/span&gt;&lt;/div&gt;&lt;span style=&quot;background-color: rgb(255, 255, 255);&quot;&gt;&lt;br&gt;&lt;/span&gt;&lt;div style=&quot;&quot;&gt;&lt;span style=&quot;background-color: rgb(255, 255, 255);&quot;&gt;&lt;span style=&quot;color: #7a3e9d;&quot;&gt;def&lt;/span&gt;&lt;span style=&quot;color: #333333;&quot;&gt; &lt;/span&gt;&lt;span style=&quot;color: #aa3731;font-weight: bold;&quot;&gt;run&lt;/span&gt;&lt;span style=&quot;color: #777777;&quot;&gt;():&lt;/span&gt;&lt;/span&gt;&lt;/div&gt;&lt;div style=&quot;&quot;&gt;&lt;span style=&quot;background-color: rgb(255, 255, 255);&quot;&gt;&lt;span style=&quot;color: #333333;&quot;&gt;    &lt;/span&gt;&lt;span style=&quot;color: #4b69c6;&quot;&gt;with&lt;/span&gt;&lt;span style=&quot;color: #333333;&quot;&gt; &lt;/span&gt;&lt;span style=&quot;color: #7a3e9d;font-weight: bold;&quot;&gt;grpc&lt;/span&gt;&lt;span style=&quot;color: #777777;&quot;&gt;.&lt;/span&gt;&lt;span style=&quot;color: #aa3731;font-weight: bold;&quot;&gt;insecure_channel&lt;/span&gt;&lt;span style=&quot;color: #777777;&quot;&gt;(&lt;/span&gt;&lt;span style=&quot;color: #777777;&quot;&gt;&#39;&lt;/span&gt;&lt;span style=&quot;color: #448c27;&quot;&gt;localhost:50051&lt;/span&gt;&lt;span style=&quot;color: #777777;&quot;&gt;&#39;&lt;/span&gt;&lt;span style=&quot;color: #777777;&quot;&gt;)&lt;/span&gt;&lt;span style=&quot;color: #333333;&quot;&gt; &lt;/span&gt;&lt;span style=&quot;color: #4b69c6;&quot;&gt;as&lt;/span&gt;&lt;span style=&quot;color: #333333;&quot;&gt; &lt;/span&gt;&lt;span style=&quot;color: #7a3e9d;&quot;&gt;channel&lt;/span&gt;&lt;span style=&quot;color: #777777;&quot;&gt;:&lt;/span&gt;&lt;/span&gt;&lt;/div&gt;&lt;div style=&quot;&quot;&gt;&lt;span style=&quot;background-color: rgb(255, 255, 255);&quot;&gt;&lt;span style=&quot;color: #333333;&quot;&gt;        &lt;/span&gt;&lt;span style=&quot;color: #7a3e9d;&quot;&gt;stub&lt;/span&gt;&lt;span style=&quot;color: #333333;&quot;&gt; &lt;/span&gt;&lt;span style=&quot;color: #777777;&quot;&gt;=&lt;/span&gt;&lt;span style=&quot;color: #333333;&quot;&gt; &lt;/span&gt;&lt;span style=&quot;color: #7a3e9d;font-weight: bold;&quot;&gt;pb2_grpc&lt;/span&gt;&lt;span style=&quot;color: #777777;&quot;&gt;.&lt;/span&gt;&lt;span style=&quot;color: #7a3e9d;font-weight: bold;&quot;&gt;UserServiceStub&lt;/span&gt;&lt;span style=&quot;color: #777777;&quot;&gt;(&lt;/span&gt;&lt;span style=&quot;color: #7a3e9d;&quot;&gt;channel&lt;/span&gt;&lt;span style=&quot;color: #777777;&quot;&gt;)&lt;/span&gt;&lt;/span&gt;&lt;/div&gt;&lt;div style=&quot;&quot;&gt;&lt;span style=&quot;background-color: rgb(255, 255, 255);&quot;&gt;&lt;span style=&quot;color: #333333;&quot;&gt;        &lt;/span&gt;&lt;span style=&quot;color: #4b69c6;&quot;&gt;for&lt;/span&gt;&lt;span style=&quot;color: #333333;&quot;&gt; &lt;/span&gt;&lt;span style=&quot;color: #7a3e9d;&quot;&gt;_&lt;/span&gt;&lt;span style=&quot;color: #333333;&quot;&gt; &lt;/span&gt;&lt;span style=&quot;color: #4b69c6;&quot;&gt;in&lt;/span&gt;&lt;span style=&quot;color: #333333;&quot;&gt; &lt;/span&gt;&lt;span style=&quot;color: #7a3e9d;font-weight: bold;&quot;&gt;range&lt;/span&gt;&lt;span style=&quot;color: #777777;&quot;&gt;(&lt;/span&gt;&lt;span style=&quot;color: #9c5d27;&quot;&gt;5&lt;/span&gt;&lt;span style=&quot;color: #777777;&quot;&gt;):&lt;/span&gt;&lt;/span&gt;&lt;/div&gt;&lt;div style=&quot;&quot;&gt;&lt;span style=&quot;background-color: rgb(255, 255, 255);&quot;&gt;&lt;span style=&quot;color: #333333;&quot;&gt;            &lt;/span&gt;&lt;span style=&quot;color: #7a3e9d;&quot;&gt;uid&lt;/span&gt;&lt;span style=&quot;color: #333333;&quot;&gt; &lt;/span&gt;&lt;span style=&quot;color: #777777;&quot;&gt;=&lt;/span&gt;&lt;span style=&quot;color: #333333;&quot;&gt; &lt;/span&gt;&lt;span style=&quot;color: #7a3e9d;font-weight: bold;&quot;&gt;random&lt;/span&gt;&lt;span style=&quot;color: #777777;&quot;&gt;.&lt;/span&gt;&lt;span style=&quot;color: #7a3e9d;&quot;&gt;randint&lt;/span&gt;&lt;span style=&quot;color: #777777;&quot;&gt;(&lt;/span&gt;&lt;span style=&quot;color: #9c5d27;&quot;&gt;0&lt;/span&gt;&lt;span style=&quot;color: #777777;&quot;&gt;,&lt;/span&gt;&lt;span style=&quot;color: #333333;&quot;&gt; &lt;/span&gt;&lt;span style=&quot;color: #9c5d27;&quot;&gt;15&lt;/span&gt;&lt;span style=&quot;color: #777777;&quot;&gt;)&lt;/span&gt;&lt;/span&gt;&lt;/div&gt;&lt;div style=&quot;&quot;&gt;&lt;span style=&quot;background-color: rgb(255, 255, 255);&quot;&gt;&lt;span style=&quot;color: #333333;&quot;&gt;            &lt;/span&gt;&lt;span style=&quot;color: #7a3e9d;&quot;&gt;response&lt;/span&gt;&lt;span style=&quot;color: #333333;&quot;&gt; &lt;/span&gt;&lt;span style=&quot;color: #777777;&quot;&gt;=&lt;/span&gt;&lt;span style=&quot;color: #333333;&quot;&gt; &lt;/span&gt;&lt;span style=&quot;color: #7a3e9d;&quot;&gt;stub&lt;/span&gt;&lt;span style=&quot;color: #777777;&quot;&gt;.&lt;/span&gt;&lt;span style=&quot;color: #7a3e9d;&quot;&gt;GetUser&lt;/span&gt;&lt;span style=&quot;color: #777777;&quot;&gt;(&lt;/span&gt;&lt;span style=&quot;color: #7a3e9d;font-weight: bold;&quot;&gt;pb2&lt;/span&gt;&lt;span style=&quot;color: #777777;&quot;&gt;.&lt;/span&gt;&lt;span style=&quot;color: #333333;&quot;&gt;GetUserRequest&lt;/span&gt;&lt;span style=&quot;color: #777777;&quot;&gt;(&lt;/span&gt;&lt;span style=&quot;color: #7a3e9d;&quot;&gt;uid&lt;/span&gt;&lt;span style=&quot;color: #777777;&quot;&gt;=&lt;/span&gt;&lt;span style=&quot;color: #7a3e9d;&quot;&gt;uid&lt;/span&gt;&lt;span style=&quot;color: #777777;&quot;&gt;))&lt;/span&gt;&lt;/span&gt;&lt;/div&gt;&lt;div style=&quot;&quot;&gt;&lt;span style=&quot;background-color: rgb(255, 255, 255);&quot;&gt;&lt;span style=&quot;color: #333333;&quot;&gt;            &lt;/span&gt;&lt;span style=&quot;color: #4b69c6;&quot;&gt;if&lt;/span&gt;&lt;span style=&quot;color: #333333;&quot;&gt; &lt;/span&gt;&lt;span style=&quot;color: #7a3e9d;&quot;&gt;response&lt;/span&gt;&lt;span style=&quot;color: #777777;&quot;&gt;.&lt;/span&gt;&lt;span style=&quot;color: #333333;&quot;&gt;success&lt;/span&gt;&lt;span style=&quot;color: #777777;&quot;&gt;:&lt;/span&gt;&lt;/span&gt;&lt;/div&gt;&lt;div style=&quot;&quot;&gt;&lt;span style=&quot;background-color: rgb(255, 255, 255);&quot;&gt;&lt;span style=&quot;color: #333333;&quot;&gt;                &lt;/span&gt;&lt;span style=&quot;color: #aa3731;font-weight: bold;&quot;&gt;print&lt;/span&gt;&lt;span style=&quot;color: #777777;&quot;&gt;(&lt;/span&gt;&lt;span style=&quot;color: #7a3e9d;&quot;&gt;f&lt;/span&gt;&lt;span style=&quot;color: #448c27;&quot;&gt;&quot;Uid: &lt;/span&gt;&lt;span style=&quot;color: #9c5d27;&quot;&gt;{&lt;/span&gt;&lt;span style=&quot;color: #7a3e9d;&quot;&gt;uid&lt;/span&gt;&lt;span style=&quot;color: #9c5d27;&quot;&gt;}&lt;/span&gt;&lt;span style=&quot;color: #448c27;&quot;&gt;, Username: &lt;/span&gt;&lt;span style=&quot;color: #9c5d27;&quot;&gt;{&lt;/span&gt;&lt;span style=&quot;color: #7a3e9d;&quot;&gt;response&lt;/span&gt;&lt;span style=&quot;color: #777777;&quot;&gt;.&lt;/span&gt;&lt;span style=&quot;color: #333333;&quot;&gt;username&lt;/span&gt;&lt;span style=&quot;color: #9c5d27;&quot;&gt;}&lt;/span&gt;&lt;span style=&quot;color: #448c27;&quot;&gt;&quot;&lt;/span&gt;&lt;span style=&quot;color: #777777;&quot;&gt;)&lt;/span&gt;&lt;/span&gt;&lt;/div&gt;&lt;div style=&quot;&quot;&gt;&lt;span style=&quot;background-color: rgb(255, 255, 255);&quot;&gt;&lt;span style=&quot;color: #333333;&quot;&gt;            &lt;/span&gt;&lt;span style=&quot;color: #4b69c6;&quot;&gt;else&lt;/span&gt;&lt;span style=&quot;color: #777777;&quot;&gt;:&lt;/span&gt;&lt;/span&gt;&lt;/div&gt;&lt;div style=&quot;&quot;&gt;&lt;span style=&quot;background-color: rgb(255, 255, 255);&quot;&gt;&lt;span style=&quot;color: #333333;&quot;&gt;                &lt;/span&gt;&lt;span style=&quot;color: #aa3731;font-weight: bold;&quot;&gt;print&lt;/span&gt;&lt;span style=&quot;color: #777777;&quot;&gt;(&lt;/span&gt;&lt;span style=&quot;color: #7a3e9d;&quot;&gt;f&lt;/span&gt;&lt;span style=&quot;color: #448c27;&quot;&gt;&quot;Uid &lt;/span&gt;&lt;span style=&quot;color: #9c5d27;&quot;&gt;{&lt;/span&gt;&lt;span style=&quot;color: #7a3e9d;&quot;&gt;uid&lt;/span&gt;&lt;span style=&quot;color: #9c5d27;&quot;&gt;}&lt;/span&gt;&lt;span style=&quot;color: #448c27;&quot;&gt; not found.&quot;&lt;/span&gt;&lt;span style=&quot;color: #777777;&quot;&gt;)&lt;/span&gt;&lt;/span&gt;&lt;/div&gt;&lt;span style=&quot;background-color: rgb(255, 255, 255);&quot;&gt;&lt;br&gt;&lt;/span&gt;&lt;div style=&quot;&quot;&gt;&lt;span style=&quot;background-color: rgb(255, 255, 255);&quot;&gt;&lt;span style=&quot;color: #4b69c6;&quot;&gt;if&lt;/span&gt;&lt;span style=&quot;color: #333333;&quot;&gt; &lt;/span&gt;&lt;span style=&quot;color: #7a3e9d;&quot;&gt;__name__&lt;/span&gt;&lt;span style=&quot;color: #333333;&quot;&gt; &lt;/span&gt;&lt;span style=&quot;color: #777777;&quot;&gt;==&lt;/span&gt;&lt;span style=&quot;color: #333333;&quot;&gt; &lt;/span&gt;&lt;span style=&quot;color: #777777;&quot;&gt;&#39;&lt;/span&gt;&lt;span style=&quot;color: #448c27;&quot;&gt;__main__&lt;/span&gt;&lt;span style=&quot;color: #777777;&quot;&gt;&#39;&lt;/span&gt;&lt;span style=&quot;color: #777777;&quot;&gt;:&lt;/span&gt;&lt;/span&gt;&lt;/div&gt;&lt;div style=&quot;&quot;&gt;&lt;span style=&quot;background-color: rgb(255, 255, 255);&quot;&gt;&lt;span style=&quot;color: rgb(51, 51, 51);&quot;&gt;    &lt;/span&gt;&lt;span style=&quot;color: rgb(170, 55, 49); font-weight: bold;&quot;&gt;run&lt;/span&gt;&lt;span style=&quot;color: rgb(119, 119, 119);&quot;&gt;()&lt;/span&gt;&lt;/span&gt;&lt;/div&gt;&lt;/div&gt;" style="text;whiteSpace=wrap;html=1;" vertex="1" parent="1">
          <mxGeometry x="10" y="10" width="500" height="370" as="geometry" />
        </mxCell>
        <UserObject label="&lt;div style=&quot;color: rgb(51, 51, 51); font-family: &amp;quot;Droid Sans Mono&amp;quot;, &amp;quot;monospace&amp;quot;, monospace; font-weight: normal; font-size: 14px; line-height: 19px; white-space: pre;&quot;&gt;&lt;div style=&quot;&quot;&gt;&lt;span style=&quot;background-color: rgb(255, 255, 255);&quot;&gt;&lt;span style=&quot;color: rgb(75, 105, 198);&quot;&gt;import&lt;/span&gt;&lt;span style=&quot;color: rgb(51, 51, 51);&quot;&gt; &lt;/span&gt;&lt;span style=&quot;color: rgb(122, 62, 157); font-weight: bold;&quot;&gt;grpc&lt;/span&gt;&lt;/span&gt;&lt;/div&gt;&lt;div style=&quot;&quot;&gt;&lt;span style=&quot;background-color: rgb(255, 255, 255);&quot;&gt;&lt;span style=&quot;color: #4b69c6;&quot;&gt;import&lt;/span&gt;&lt;span style=&quot;color: #333333;&quot;&gt; &lt;/span&gt;&lt;span style=&quot;color: #7a3e9d;font-weight: bold;&quot;&gt;user_service_pb2&lt;/span&gt;&lt;span style=&quot;color: #333333;&quot;&gt; &lt;/span&gt;&lt;span style=&quot;color: #4b69c6;&quot;&gt;as&lt;/span&gt;&lt;span style=&quot;color: #333333;&quot;&gt; &lt;/span&gt;&lt;span style=&quot;color: #7a3e9d;font-weight: bold;&quot;&gt;pb2&lt;/span&gt;&lt;/span&gt;&lt;/div&gt;&lt;div style=&quot;&quot;&gt;&lt;span style=&quot;background-color: rgb(255, 255, 255);&quot;&gt;&lt;span style=&quot;color: #4b69c6;&quot;&gt;import&lt;/span&gt;&lt;span style=&quot;color: #333333;&quot;&gt; &lt;/span&gt;&lt;span style=&quot;color: #7a3e9d;font-weight: bold;&quot;&gt;user_service_pb2_grpc&lt;/span&gt;&lt;span style=&quot;color: #333333;&quot;&gt; &lt;/span&gt;&lt;span style=&quot;color: #4b69c6;&quot;&gt;as&lt;/span&gt;&lt;span style=&quot;color: #333333;&quot;&gt; &lt;/span&gt;&lt;span style=&quot;color: #7a3e9d;font-weight: bold;&quot;&gt;pb2_grpc&lt;/span&gt;&lt;/span&gt;&lt;/div&gt;&lt;div style=&quot;&quot;&gt;&lt;span style=&quot;background-color: rgb(255, 255, 255);&quot;&gt;&lt;span style=&quot;color: #4b69c6;&quot;&gt;from&lt;/span&gt;&lt;span style=&quot;color: #333333;&quot;&gt; &lt;/span&gt;&lt;span style=&quot;color: #7a3e9d;font-weight: bold;&quot;&gt;concurrent&lt;/span&gt;&lt;span style=&quot;color: #333333;&quot;&gt; &lt;/span&gt;&lt;span style=&quot;color: #4b69c6;&quot;&gt;import&lt;/span&gt;&lt;span style=&quot;color: #333333;&quot;&gt; &lt;/span&gt;&lt;span style=&quot;color: #7a3e9d;font-weight: bold;&quot;&gt;futures&lt;/span&gt;&lt;/span&gt;&lt;/div&gt;&lt;div style=&quot;&quot;&gt;&lt;span style=&quot;background-color: rgb(255, 255, 255);&quot;&gt;&lt;span style=&quot;color: #4b69c6;&quot;&gt;import&lt;/span&gt;&lt;span style=&quot;color: #333333;&quot;&gt; &lt;/span&gt;&lt;span style=&quot;color: #7a3e9d;font-weight: bold;&quot;&gt;json&lt;/span&gt;&lt;/span&gt;&lt;/div&gt;&lt;span style=&quot;background-color: rgb(255, 255, 255);&quot;&gt;&lt;br&gt;&lt;/span&gt;&lt;div style=&quot;&quot;&gt;&lt;span style=&quot;background-color: rgb(255, 255, 255);&quot;&gt;&lt;span style=&quot;color: #7a3e9d;&quot;&gt;class&lt;/span&gt;&lt;span style=&quot;color: #333333;&quot;&gt; &lt;/span&gt;&lt;span style=&quot;color: #7a3e9d;font-weight: bold;&quot;&gt;UserService&lt;/span&gt;&lt;span style=&quot;color: #777777;&quot;&gt;(&lt;/span&gt;&lt;span style=&quot;color: #7a3e9d;font-weight: bold;&quot;&gt;pb2_grpc&lt;/span&gt;&lt;span style=&quot;color: #777777;&quot;&gt;.&lt;/span&gt;&lt;span style=&quot;color: #7a3e9d;font-weight: bold;&quot;&gt;UserServiceServicer&lt;/span&gt;&lt;span style=&quot;color: #777777;&quot;&gt;):&lt;/span&gt;&lt;/span&gt;&lt;/div&gt;&lt;div style=&quot;&quot;&gt;&lt;span style=&quot;background-color: rgb(255, 255, 255);&quot;&gt;&lt;span style=&quot;color: #333333;&quot;&gt;    &lt;/span&gt;&lt;span style=&quot;color: #7a3e9d;&quot;&gt;def&lt;/span&gt;&lt;span style=&quot;color: #333333;&quot;&gt; &lt;/span&gt;&lt;span style=&quot;color: #aa3731;font-weight: bold;&quot;&gt;GetUser&lt;/span&gt;&lt;span style=&quot;color: #777777;&quot;&gt;(&lt;/span&gt;&lt;span style=&quot;color: #7a3e9d;&quot;&gt;self&lt;/span&gt;&lt;span style=&quot;color: #777777;&quot;&gt;,&lt;/span&gt;&lt;span style=&quot;color: #333333;&quot;&gt; &lt;/span&gt;&lt;span style=&quot;color: #7a3e9d;&quot;&gt;request&lt;/span&gt;&lt;span style=&quot;color: #777777;&quot;&gt;,&lt;/span&gt;&lt;span style=&quot;color: #333333;&quot;&gt; &lt;/span&gt;&lt;span style=&quot;color: #7a3e9d;&quot;&gt;context&lt;/span&gt;&lt;span style=&quot;color: #777777;&quot;&gt;):&lt;/span&gt;&lt;/span&gt;&lt;/div&gt;&lt;div style=&quot;&quot;&gt;&lt;span style=&quot;background-color: rgb(255, 255, 255);&quot;&gt;&lt;span style=&quot;color: #333333;&quot;&gt;        &lt;/span&gt;&lt;span style=&quot;color: #4b69c6;&quot;&gt;with&lt;/span&gt;&lt;span style=&quot;color: #333333;&quot;&gt; &lt;/span&gt;&lt;span style=&quot;color: #aa3731;font-weight: bold;&quot;&gt;open&lt;/span&gt;&lt;span style=&quot;color: #777777;&quot;&gt;(&lt;/span&gt;&lt;span style=&quot;color: #777777;&quot;&gt;&#39;&lt;/span&gt;&lt;span style=&quot;color: #448c27;&quot;&gt;data.json&lt;/span&gt;&lt;span style=&quot;color: #777777;&quot;&gt;&#39;&lt;/span&gt;&lt;span style=&quot;color: #777777;&quot;&gt;,&lt;/span&gt;&lt;span style=&quot;color: #333333;&quot;&gt; &lt;/span&gt;&lt;span style=&quot;color: #777777;&quot;&gt;&#39;&lt;/span&gt;&lt;span style=&quot;color: #448c27;&quot;&gt;r&lt;/span&gt;&lt;span style=&quot;color: #777777;&quot;&gt;&#39;&lt;/span&gt;&lt;span style=&quot;color: #777777;&quot;&gt;)&lt;/span&gt;&lt;span style=&quot;color: #333333;&quot;&gt; &lt;/span&gt;&lt;span style=&quot;color: #4b69c6;&quot;&gt;as&lt;/span&gt;&lt;span style=&quot;color: #333333;&quot;&gt; &lt;/span&gt;&lt;span style=&quot;color: #7a3e9d;&quot;&gt;f&lt;/span&gt;&lt;span style=&quot;color: #777777;&quot;&gt;:&lt;/span&gt;&lt;/span&gt;&lt;/div&gt;&lt;div style=&quot;&quot;&gt;&lt;span style=&quot;background-color: rgb(255, 255, 255);&quot;&gt;&lt;span style=&quot;color: #333333;&quot;&gt;            &lt;/span&gt;&lt;span style=&quot;color: #7a3e9d;&quot;&gt;data&lt;/span&gt;&lt;span style=&quot;color: #333333;&quot;&gt; &lt;/span&gt;&lt;span style=&quot;color: #777777;&quot;&gt;=&lt;/span&gt;&lt;span style=&quot;color: #333333;&quot;&gt; &lt;/span&gt;&lt;span style=&quot;color: #7a3e9d;font-weight: bold;&quot;&gt;json&lt;/span&gt;&lt;span style=&quot;color: #777777;&quot;&gt;.&lt;/span&gt;&lt;span style=&quot;color: #aa3731;font-weight: bold;&quot;&gt;load&lt;/span&gt;&lt;span style=&quot;color: #777777;&quot;&gt;(&lt;/span&gt;&lt;span style=&quot;color: #7a3e9d;&quot;&gt;f&lt;/span&gt;&lt;span style=&quot;color: #777777;&quot;&gt;)&lt;/span&gt;&lt;/span&gt;&lt;/div&gt;&lt;div style=&quot;&quot;&gt;&lt;span style=&quot;background-color: rgb(255, 255, 255);&quot;&gt;&lt;span style=&quot;color: #333333;&quot;&gt;            &lt;/span&gt;&lt;span style=&quot;color: #7a3e9d;&quot;&gt;username&lt;/span&gt;&lt;span style=&quot;color: #333333;&quot;&gt; &lt;/span&gt;&lt;span style=&quot;color: #777777;&quot;&gt;=&lt;/span&gt;&lt;span style=&quot;color: #333333;&quot;&gt; &lt;/span&gt;&lt;span style=&quot;color: #aa3731;font-weight: bold;&quot;&gt;next&lt;/span&gt;&lt;span style=&quot;color: #777777;&quot;&gt;((&lt;/span&gt;&lt;span style=&quot;color: #7a3e9d;&quot;&gt;item&lt;/span&gt;&lt;span style=&quot;color: #777777;&quot;&gt;[&lt;/span&gt;&lt;span style=&quot;color: #777777;&quot;&gt;&quot;&lt;/span&gt;&lt;span style=&quot;color: #448c27;&quot;&gt;username&lt;/span&gt;&lt;span style=&quot;color: #777777;&quot;&gt;&quot;&lt;/span&gt;&lt;span style=&quot;color: #777777;&quot;&gt;]&lt;/span&gt;&lt;span style=&quot;color: #333333;&quot;&gt; &lt;/span&gt;&lt;/span&gt;&lt;/div&gt;&lt;div style=&quot;&quot;&gt;&lt;span style=&quot;background-color: rgb(255, 255, 255);&quot;&gt;&lt;span style=&quot;color: #333333;&quot;&gt;                             &lt;/span&gt;&lt;span style=&quot;color: #4b69c6;&quot;&gt;for&lt;/span&gt;&lt;span style=&quot;color: #333333;&quot;&gt; &lt;/span&gt;&lt;span style=&quot;color: #7a3e9d;&quot;&gt;item&lt;/span&gt;&lt;span style=&quot;color: #333333;&quot;&gt; &lt;/span&gt;&lt;span style=&quot;color: #4b69c6;&quot;&gt;in&lt;/span&gt;&lt;span style=&quot;color: #333333;&quot;&gt; &lt;/span&gt;&lt;span style=&quot;color: #7a3e9d;&quot;&gt;data&lt;/span&gt;&lt;span style=&quot;color: #333333;&quot;&gt; &lt;/span&gt;&lt;/span&gt;&lt;/div&gt;&lt;div style=&quot;&quot;&gt;&lt;span style=&quot;background-color: rgb(255, 255, 255);&quot;&gt;&lt;span style=&quot;color: #333333;&quot;&gt;                             &lt;/span&gt;&lt;span style=&quot;color: #4b69c6;&quot;&gt;if&lt;/span&gt;&lt;span style=&quot;color: #333333;&quot;&gt; &lt;/span&gt;&lt;span style=&quot;color: #7a3e9d;&quot;&gt;item&lt;/span&gt;&lt;span style=&quot;color: #777777;&quot;&gt;[&lt;/span&gt;&lt;span style=&quot;color: #777777;&quot;&gt;&quot;&lt;/span&gt;&lt;span style=&quot;color: #448c27;&quot;&gt;uid&lt;/span&gt;&lt;span style=&quot;color: #777777;&quot;&gt;&quot;&lt;/span&gt;&lt;span style=&quot;color: #777777;&quot;&gt;]&lt;/span&gt;&lt;span style=&quot;color: #333333;&quot;&gt; &lt;/span&gt;&lt;span style=&quot;color: #777777;&quot;&gt;==&lt;/span&gt;&lt;span style=&quot;color: #333333;&quot;&gt; &lt;/span&gt;&lt;span style=&quot;color: #7a3e9d;&quot;&gt;request&lt;/span&gt;&lt;span style=&quot;color: #777777;&quot;&gt;.&lt;/span&gt;&lt;span style=&quot;color: #333333;&quot;&gt;uid&lt;/span&gt;&lt;span style=&quot;color: #777777;&quot;&gt;),&lt;/span&gt;&lt;span style=&quot;color: #333333;&quot;&gt; &lt;/span&gt;&lt;span style=&quot;color: #9c5d27;&quot;&gt;None&lt;/span&gt;&lt;span style=&quot;color: #777777;&quot;&gt;)&lt;/span&gt;&lt;/span&gt;&lt;/div&gt;&lt;div style=&quot;&quot;&gt;&lt;span style=&quot;background-color: rgb(255, 255, 255);&quot;&gt;&lt;span style=&quot;color: #333333;&quot;&gt;        &lt;/span&gt;&lt;span style=&quot;color: #4b69c6;&quot;&gt;if&lt;/span&gt;&lt;span style=&quot;color: #333333;&quot;&gt; &lt;/span&gt;&lt;span style=&quot;color: #7a3e9d;&quot;&gt;username&lt;/span&gt;&lt;span style=&quot;color: #777777;&quot;&gt;:&lt;/span&gt;&lt;/span&gt;&lt;/div&gt;&lt;div style=&quot;&quot;&gt;&lt;span style=&quot;background-color: rgb(255, 255, 255);&quot;&gt;&lt;span style=&quot;color: #333333;&quot;&gt;            &lt;/span&gt;&lt;span style=&quot;color: #4b69c6;&quot;&gt;return&lt;/span&gt;&lt;span style=&quot;color: #333333;&quot;&gt; &lt;/span&gt;&lt;span style=&quot;color: #7a3e9d;font-weight: bold;&quot;&gt;pb2&lt;/span&gt;&lt;span style=&quot;color: #777777;&quot;&gt;.&lt;/span&gt;&lt;span style=&quot;color: #333333;&quot;&gt;GetUserResponse&lt;/span&gt;&lt;span style=&quot;color: #777777;&quot;&gt;(&lt;/span&gt;&lt;span style=&quot;color: #7a3e9d;&quot;&gt;username&lt;/span&gt;&lt;span style=&quot;color: #777777;&quot;&gt;=&lt;/span&gt;&lt;span style=&quot;color: #7a3e9d;&quot;&gt;username&lt;/span&gt;&lt;span style=&quot;color: #777777;&quot;&gt;,&lt;/span&gt;&lt;span style=&quot;color: #333333;&quot;&gt; &lt;/span&gt;&lt;span style=&quot;color: #7a3e9d;&quot;&gt;success&lt;/span&gt;&lt;span style=&quot;color: #777777;&quot;&gt;=&lt;/span&gt;&lt;span style=&quot;color: #9c5d27;&quot;&gt;True&lt;/span&gt;&lt;span style=&quot;color: #777777;&quot;&gt;)&lt;/span&gt;&lt;/span&gt;&lt;/div&gt;&lt;div style=&quot;&quot;&gt;&lt;span style=&quot;background-color: rgb(255, 255, 255);&quot;&gt;&lt;span style=&quot;color: #333333;&quot;&gt;        &lt;/span&gt;&lt;span style=&quot;color: #4b69c6;&quot;&gt;else&lt;/span&gt;&lt;span style=&quot;color: #777777;&quot;&gt;:&lt;/span&gt;&lt;/span&gt;&lt;/div&gt;&lt;div style=&quot;&quot;&gt;&lt;span style=&quot;background-color: rgb(255, 255, 255);&quot;&gt;&lt;span style=&quot;color: #333333;&quot;&gt;            &lt;/span&gt;&lt;span style=&quot;color: #4b69c6;&quot;&gt;return&lt;/span&gt;&lt;span style=&quot;color: #333333;&quot;&gt; &lt;/span&gt;&lt;span style=&quot;color: #7a3e9d;font-weight: bold;&quot;&gt;pb2&lt;/span&gt;&lt;span style=&quot;color: #777777;&quot;&gt;.&lt;/span&gt;&lt;span style=&quot;color: #333333;&quot;&gt;GetUserResponse&lt;/span&gt;&lt;span style=&quot;color: #777777;&quot;&gt;(&lt;/span&gt;&lt;span style=&quot;color: #7a3e9d;&quot;&gt;username&lt;/span&gt;&lt;span style=&quot;color: #777777;&quot;&gt;=&lt;/span&gt;&lt;span style=&quot;color: #777777;&quot;&gt;&quot;&quot;&lt;/span&gt;&lt;span style=&quot;color: #777777;&quot;&gt;,&lt;/span&gt;&lt;span style=&quot;color: #333333;&quot;&gt; &lt;/span&gt;&lt;span style=&quot;color: #7a3e9d;&quot;&gt;success&lt;/span&gt;&lt;span style=&quot;color: #777777;&quot;&gt;=&lt;/span&gt;&lt;span style=&quot;color: #9c5d27;&quot;&gt;False&lt;/span&gt;&lt;span style=&quot;color: #777777;&quot;&gt;)&lt;/span&gt;&lt;/span&gt;&lt;/div&gt;&lt;span style=&quot;background-color: rgb(255, 255, 255);&quot;&gt;&lt;br&gt;&lt;/span&gt;&lt;div style=&quot;&quot;&gt;&lt;span style=&quot;background-color: rgb(255, 255, 255);&quot;&gt;&lt;span style=&quot;color: #7a3e9d;&quot;&gt;def&lt;/span&gt;&lt;span style=&quot;color: #333333;&quot;&gt; &lt;/span&gt;&lt;span style=&quot;color: #aa3731;font-weight: bold;&quot;&gt;serve&lt;/span&gt;&lt;span style=&quot;color: #777777;&quot;&gt;():&lt;/span&gt;&lt;/span&gt;&lt;/div&gt;&lt;div style=&quot;&quot;&gt;&lt;span style=&quot;background-color: rgb(255, 255, 255);&quot;&gt;&lt;span style=&quot;color: #333333;&quot;&gt;    &lt;/span&gt;&lt;span style=&quot;color: #7a3e9d;&quot;&gt;server&lt;/span&gt;&lt;span style=&quot;color: #333333;&quot;&gt; &lt;/span&gt;&lt;span style=&quot;color: #777777;&quot;&gt;=&lt;/span&gt;&lt;span style=&quot;color: #333333;&quot;&gt; &lt;/span&gt;&lt;span style=&quot;color: #7a3e9d;font-weight: bold;&quot;&gt;grpc&lt;/span&gt;&lt;span style=&quot;color: #777777;&quot;&gt;.&lt;/span&gt;&lt;span style=&quot;color: #aa3731;font-weight: bold;&quot;&gt;server&lt;/span&gt;&lt;span style=&quot;color: #777777;&quot;&gt;(&lt;/span&gt;&lt;span style=&quot;color: #7a3e9d;font-weight: bold;&quot;&gt;futures&lt;/span&gt;&lt;span style=&quot;color: #777777;&quot;&gt;.&lt;/span&gt;&lt;span style=&quot;color: #7a3e9d;font-weight: bold;&quot;&gt;ThreadPoolExecutor&lt;/span&gt;&lt;span style=&quot;color: #777777;&quot;&gt;(&lt;/span&gt;&lt;span style=&quot;color: #7a3e9d;&quot;&gt;max_workers&lt;/span&gt;&lt;span style=&quot;color: #777777;&quot;&gt;=&lt;/span&gt;&lt;span style=&quot;color: #9c5d27;&quot;&gt;5&lt;/span&gt;&lt;span style=&quot;color: #777777;&quot;&gt;))&lt;/span&gt;&lt;/span&gt;&lt;/div&gt;&lt;div style=&quot;&quot;&gt;&lt;span style=&quot;background-color: rgb(255, 255, 255);&quot;&gt;&lt;span style=&quot;color: #333333;&quot;&gt;    &lt;/span&gt;&lt;span style=&quot;color: #7a3e9d;font-weight: bold;&quot;&gt;pb2_grpc&lt;/span&gt;&lt;span style=&quot;color: #777777;&quot;&gt;.&lt;/span&gt;&lt;span style=&quot;color: #aa3731;font-weight: bold;&quot;&gt;add_UserServiceServicer_to_server&lt;/span&gt;&lt;span style=&quot;color: #777777;&quot;&gt;(&lt;/span&gt;&lt;span style=&quot;color: #7a3e9d;font-weight: bold;&quot;&gt;UserService&lt;/span&gt;&lt;span style=&quot;color: #777777;&quot;&gt;(),&lt;/span&gt;&lt;span style=&quot;color: #333333;&quot;&gt; &lt;/span&gt;&lt;span style=&quot;color: #7a3e9d;&quot;&gt;server&lt;/span&gt;&lt;span style=&quot;color: #777777;&quot;&gt;)&lt;/span&gt;&lt;/span&gt;&lt;/div&gt;&lt;div style=&quot;&quot;&gt;&lt;span style=&quot;background-color: rgb(255, 255, 255);&quot;&gt;&lt;span style=&quot;color: #333333;&quot;&gt;    &lt;/span&gt;&lt;span style=&quot;color: #7a3e9d;&quot;&gt;server&lt;/span&gt;&lt;span style=&quot;color: #777777;&quot;&gt;.&lt;/span&gt;&lt;span style=&quot;color: #aa3731;font-weight: bold;&quot;&gt;add_insecure_port&lt;/span&gt;&lt;span style=&quot;color: #777777;&quot;&gt;(&lt;/span&gt;&lt;span style=&quot;color: #777777;&quot;&gt;&#39;&lt;/span&gt;&lt;span style=&quot;color: #448c27;&quot;&gt;[::]:50051&lt;/span&gt;&lt;span style=&quot;color: #777777;&quot;&gt;&#39;&lt;/span&gt;&lt;span style=&quot;color: #777777;&quot;&gt;)&lt;/span&gt;&lt;/span&gt;&lt;/div&gt;&lt;div style=&quot;&quot;&gt;&lt;span style=&quot;background-color: rgb(255, 255, 255);&quot;&gt;&lt;span style=&quot;color: #333333;&quot;&gt;    &lt;/span&gt;&lt;span style=&quot;color: #7a3e9d;&quot;&gt;server&lt;/span&gt;&lt;span style=&quot;color: #777777;&quot;&gt;.&lt;/span&gt;&lt;span style=&quot;color: #aa3731;font-weight: bold;&quot;&gt;start&lt;/span&gt;&lt;span style=&quot;color: #777777;&quot;&gt;()&lt;/span&gt;&lt;/span&gt;&lt;/div&gt;&lt;div style=&quot;&quot;&gt;&lt;span style=&quot;background-color: rgb(255, 255, 255);&quot;&gt;&lt;span style=&quot;color: #333333;&quot;&gt;    &lt;/span&gt;&lt;span style=&quot;color: #7a3e9d;&quot;&gt;server&lt;/span&gt;&lt;span style=&quot;color: #777777;&quot;&gt;.&lt;/span&gt;&lt;span style=&quot;color: #aa3731;font-weight: bold;&quot;&gt;wait_for_termination&lt;/span&gt;&lt;span style=&quot;color: #777777;&quot;&gt;()&lt;/span&gt;&lt;/span&gt;&lt;/div&gt;&lt;span style=&quot;background-color: rgb(255, 255, 255);&quot;&gt;&lt;br&gt;&lt;/span&gt;&lt;div style=&quot;&quot;&gt;&lt;span style=&quot;background-color: rgb(255, 255, 255);&quot;&gt;&lt;span style=&quot;color: #4b69c6;&quot;&gt;if&lt;/span&gt;&lt;span style=&quot;color: #333333;&quot;&gt; &lt;/span&gt;&lt;span style=&quot;color: #7a3e9d;&quot;&gt;__name__&lt;/span&gt;&lt;span style=&quot;color: #333333;&quot;&gt; &lt;/span&gt;&lt;span style=&quot;color: #777777;&quot;&gt;==&lt;/span&gt;&lt;span style=&quot;color: #333333;&quot;&gt; &lt;/span&gt;&lt;span style=&quot;color: #777777;&quot;&gt;&#39;&lt;/span&gt;&lt;span style=&quot;color: #448c27;&quot;&gt;__main__&lt;/span&gt;&lt;span style=&quot;color: #777777;&quot;&gt;&#39;&lt;/span&gt;&lt;span style=&quot;color: #777777;&quot;&gt;:&lt;/span&gt;&lt;/span&gt;&lt;/div&gt;&lt;div style=&quot;&quot;&gt;&lt;span style=&quot;background-color: rgb(255, 255, 255);&quot;&gt;&lt;span style=&quot;color: rgb(51, 51, 51);&quot;&gt;    &lt;/span&gt;&lt;span style=&quot;color: rgb(170, 55, 49); font-weight: bold;&quot;&gt;serve&lt;/span&gt;&lt;span style=&quot;color: rgb(119, 119, 119);&quot;&gt;()&lt;/span&gt;&lt;/span&gt;&lt;/div&gt;&lt;/div&gt;" link="&lt;div style=&quot;color: #333333;background-color: #f5f5f5;font-family: &#39;Droid Sans Mono&#39;, &#39;monospace&#39;, monospace;font-weight: normal;font-size: 14px;line-height: 19px;white-space: pre;&quot;&gt;&lt;div&gt;&lt;span style=&quot;color: #4b69c6;&quot;&gt;import&lt;/span&gt;&lt;span style=&quot;color: #333333;&quot;&gt; &lt;/span&gt;&lt;span style=&quot;color: #7a3e9d;font-weight: bold;&quot;&gt;grpc&lt;/span&gt;&lt;/div&gt;&lt;div&gt;&lt;span style=&quot;color: #4b69c6;&quot;&gt;import&lt;/span&gt;&lt;span style=&quot;color: #333333;&quot;&gt; &lt;/span&gt;&lt;span style=&quot;color: #7a3e9d;font-weight: bold;&quot;&gt;user_service_pb2&lt;/span&gt;&lt;span style=&quot;color: #333333;&quot;&gt; &lt;/span&gt;&lt;span style=&quot;color: #4b69c6;&quot;&gt;as&lt;/span&gt;&lt;span style=&quot;color: #333333;&quot;&gt; &lt;/span&gt;&lt;span style=&quot;color: #7a3e9d;font-weight: bold;&quot;&gt;pb2&lt;/span&gt;&lt;/div&gt;&lt;div&gt;&lt;span style=&quot;color: #4b69c6;&quot;&gt;import&lt;/span&gt;&lt;span style=&quot;color: #333333;&quot;&gt; &lt;/span&gt;&lt;span style=&quot;color: #7a3e9d;font-weight: bold;&quot;&gt;user_service_pb2_grpc&lt;/span&gt;&lt;span style=&quot;color: #333333;&quot;&gt; &lt;/span&gt;&lt;span style=&quot;color: #4b69c6;&quot;&gt;as&lt;/span&gt;&lt;span style=&quot;color: #333333;&quot;&gt; &lt;/span&gt;&lt;span style=&quot;color: #7a3e9d;font-weight: bold;&quot;&gt;pb2_grpc&lt;/span&gt;&lt;/div&gt;&lt;div&gt;&lt;span style=&quot;color: #4b69c6;&quot;&gt;from&lt;/span&gt;&lt;span style=&quot;color: #333333;&quot;&gt; &lt;/span&gt;&lt;span style=&quot;color: #7a3e9d;font-weight: bold;&quot;&gt;concurrent&lt;/span&gt;&lt;span style=&quot;color: #333333;&quot;&gt; &lt;/span&gt;&lt;span style=&quot;color: #4b69c6;&quot;&gt;import&lt;/span&gt;&lt;span style=&quot;color: #333333;&quot;&gt; &lt;/span&gt;&lt;span style=&quot;color: #7a3e9d;font-weight: bold;&quot;&gt;futures&lt;/span&gt;&lt;/div&gt;&lt;div&gt;&lt;span style=&quot;color: #4b69c6;&quot;&gt;import&lt;/span&gt;&lt;span style=&quot;color: #333333;&quot;&gt; &lt;/span&gt;&lt;span style=&quot;color: #7a3e9d;font-weight: bold;&quot;&gt;json&lt;/span&gt;&lt;/div&gt;&lt;br&gt;&lt;div&gt;&lt;span style=&quot;color: #7a3e9d;&quot;&gt;class&lt;/span&gt;&lt;span style=&quot;color: #333333;&quot;&gt; &lt;/span&gt;&lt;span style=&quot;color: #7a3e9d;font-weight: bold;&quot;&gt;UserService&lt;/span&gt;&lt;span style=&quot;color: #777777;&quot;&gt;(&lt;/span&gt;&lt;span style=&quot;color: #7a3e9d;font-weight: bold;&quot;&gt;pb2_grpc&lt;/span&gt;&lt;span style=&quot;color: #777777;&quot;&gt;.&lt;/span&gt;&lt;span style=&quot;color: #7a3e9d;font-weight: bold;&quot;&gt;UserServiceServicer&lt;/span&gt;&lt;span style=&quot;color: #777777;&quot;&gt;):&lt;/span&gt;&lt;/div&gt;&lt;div&gt;&lt;span style=&quot;color: #333333;&quot;&gt;    &lt;/span&gt;&lt;span style=&quot;color: #7a3e9d;&quot;&gt;def&lt;/span&gt;&lt;span style=&quot;color: #333333;&quot;&gt; &lt;/span&gt;&lt;span style=&quot;color: #aa3731;font-weight: bold;&quot;&gt;GetUser&lt;/span&gt;&lt;span style=&quot;color: #777777;&quot;&gt;(&lt;/span&gt;&lt;span style=&quot;color: #7a3e9d;&quot;&gt;self&lt;/span&gt;&lt;span style=&quot;color: #777777;&quot;&gt;,&lt;/span&gt;&lt;span style=&quot;color: #333333;&quot;&gt; &lt;/span&gt;&lt;span style=&quot;color: #7a3e9d;&quot;&gt;request&lt;/span&gt;&lt;span style=&quot;color: #777777;&quot;&gt;,&lt;/span&gt;&lt;span style=&quot;color: #333333;&quot;&gt; &lt;/span&gt;&lt;span style=&quot;color: #7a3e9d;&quot;&gt;context&lt;/span&gt;&lt;span style=&quot;color: #777777;&quot;&gt;):&lt;/span&gt;&lt;/div&gt;&lt;div&gt;&lt;span style=&quot;color: #333333;&quot;&gt;        &lt;/span&gt;&lt;span style=&quot;color: #4b69c6;&quot;&gt;with&lt;/span&gt;&lt;span style=&quot;color: #333333;&quot;&gt; &lt;/span&gt;&lt;span style=&quot;color: #aa3731;font-weight: bold;&quot;&gt;open&lt;/span&gt;&lt;span style=&quot;color: #777777;&quot;&gt;(&lt;/span&gt;&lt;span style=&quot;color: #777777;&quot;&gt;&#39;&lt;/span&gt;&lt;span style=&quot;color: #448c27;&quot;&gt;data.json&lt;/span&gt;&lt;span style=&quot;color: #777777;&quot;&gt;&#39;&lt;/span&gt;&lt;span style=&quot;color: #777777;&quot;&gt;,&lt;/span&gt;&lt;span style=&quot;color: #333333;&quot;&gt; &lt;/span&gt;&lt;span style=&quot;color: #777777;&quot;&gt;&#39;&lt;/span&gt;&lt;span style=&quot;color: #448c27;&quot;&gt;r&lt;/span&gt;&lt;span style=&quot;color: #777777;&quot;&gt;&#39;&lt;/span&gt;&lt;span style=&quot;color: #777777;&quot;&gt;)&lt;/span&gt;&lt;span style=&quot;color: #333333;&quot;&gt; &lt;/span&gt;&lt;span style=&quot;color: #4b69c6;&quot;&gt;as&lt;/span&gt;&lt;span style=&quot;color: #333333;&quot;&gt; &lt;/span&gt;&lt;span style=&quot;color: #7a3e9d;&quot;&gt;f&lt;/span&gt;&lt;span style=&quot;color: #777777;&quot;&gt;:&lt;/span&gt;&lt;/div&gt;&lt;div&gt;&lt;span style=&quot;color: #333333;&quot;&gt;            &lt;/span&gt;&lt;span style=&quot;color: #7a3e9d;&quot;&gt;data&lt;/span&gt;&lt;span style=&quot;color: #333333;&quot;&gt; &lt;/span&gt;&lt;span style=&quot;color: #777777;&quot;&gt;=&lt;/span&gt;&lt;span style=&quot;color: #333333;&quot;&gt; &lt;/span&gt;&lt;span style=&quot;color: #7a3e9d;font-weight: bold;&quot;&gt;json&lt;/span&gt;&lt;span style=&quot;color: #777777;&quot;&gt;.&lt;/span&gt;&lt;span style=&quot;color: #aa3731;font-weight: bold;&quot;&gt;load&lt;/span&gt;&lt;span style=&quot;color: #777777;&quot;&gt;(&lt;/span&gt;&lt;span style=&quot;color: #7a3e9d;&quot;&gt;f&lt;/span&gt;&lt;span style=&quot;color: #777777;&quot;&gt;)&lt;/span&gt;&lt;/div&gt;&lt;div&gt;&lt;span style=&quot;color: #333333;&quot;&gt;            &lt;/span&gt;&lt;span style=&quot;color: #7a3e9d;&quot;&gt;username&lt;/span&gt;&lt;span style=&quot;color: #333333;&quot;&gt; &lt;/span&gt;&lt;span style=&quot;color: #777777;&quot;&gt;=&lt;/span&gt;&lt;span style=&quot;color: #333333;&quot;&gt; &lt;/span&gt;&lt;span style=&quot;color: #aa3731;font-weight: bold;&quot;&gt;next&lt;/span&gt;&lt;span style=&quot;color: #777777;&quot;&gt;((&lt;/span&gt;&lt;span style=&quot;color: #7a3e9d;&quot;&gt;item&lt;/span&gt;&lt;span style=&quot;color: #777777;&quot;&gt;[&lt;/span&gt;&lt;span style=&quot;color: #777777;&quot;&gt;&quot;&lt;/span&gt;&lt;span style=&quot;color: #448c27;&quot;&gt;username&lt;/span&gt;&lt;span style=&quot;color: #777777;&quot;&gt;&quot;&lt;/span&gt;&lt;span style=&quot;color: #777777;&quot;&gt;]&lt;/span&gt;&lt;span style=&quot;color: #333333;&quot;&gt; &lt;/span&gt;&lt;/div&gt;&lt;div&gt;&lt;span style=&quot;color: #333333;&quot;&gt;                             &lt;/span&gt;&lt;span style=&quot;color: #4b69c6;&quot;&gt;for&lt;/span&gt;&lt;span style=&quot;color: #333333;&quot;&gt; &lt;/span&gt;&lt;span style=&quot;color: #7a3e9d;&quot;&gt;item&lt;/span&gt;&lt;span style=&quot;color: #333333;&quot;&gt; &lt;/span&gt;&lt;span style=&quot;color: #4b69c6;&quot;&gt;in&lt;/span&gt;&lt;span style=&quot;color: #333333;&quot;&gt; &lt;/span&gt;&lt;span style=&quot;color: #7a3e9d;&quot;&gt;data&lt;/span&gt;&lt;span style=&quot;color: #333333;&quot;&gt; &lt;/span&gt;&lt;/div&gt;&lt;div&gt;&lt;span style=&quot;color: #333333;&quot;&gt;                             &lt;/span&gt;&lt;span style=&quot;color: #4b69c6;&quot;&gt;if&lt;/span&gt;&lt;span style=&quot;color: #333333;&quot;&gt; &lt;/span&gt;&lt;span style=&quot;color: #7a3e9d;&quot;&gt;item&lt;/span&gt;&lt;span style=&quot;color: #777777;&quot;&gt;[&lt;/span&gt;&lt;span style=&quot;color: #777777;&quot;&gt;&quot;&lt;/span&gt;&lt;span style=&quot;color: #448c27;&quot;&gt;uid&lt;/span&gt;&lt;span style=&quot;color: #777777;&quot;&gt;&quot;&lt;/span&gt;&lt;span style=&quot;color: #777777;&quot;&gt;]&lt;/span&gt;&lt;span style=&quot;color: #333333;&quot;&gt; &lt;/span&gt;&lt;span style=&quot;color: #777777;&quot;&gt;==&lt;/span&gt;&lt;span style=&quot;color: #333333;&quot;&gt; &lt;/span&gt;&lt;span style=&quot;color: #7a3e9d;&quot;&gt;request&lt;/span&gt;&lt;span style=&quot;color: #777777;&quot;&gt;.&lt;/span&gt;&lt;span style=&quot;color: #333333;&quot;&gt;uid&lt;/span&gt;&lt;span style=&quot;color: #777777;&quot;&gt;),&lt;/span&gt;&lt;span style=&quot;color: #333333;&quot;&gt; &lt;/span&gt;&lt;span style=&quot;color: #9c5d27;&quot;&gt;None&lt;/span&gt;&lt;span style=&quot;color: #777777;&quot;&gt;)&lt;/span&gt;&lt;/div&gt;&lt;div&gt;&lt;span style=&quot;color: #333333;&quot;&gt;        &lt;/span&gt;&lt;span style=&quot;color: #4b69c6;&quot;&gt;if&lt;/span&gt;&lt;span style=&quot;color: #333333;&quot;&gt; &lt;/span&gt;&lt;span style=&quot;color: #7a3e9d;&quot;&gt;username&lt;/span&gt;&lt;span style=&quot;color: #777777;&quot;&gt;:&lt;/span&gt;&lt;/div&gt;&lt;div&gt;&lt;span style=&quot;color: #333333;&quot;&gt;            &lt;/span&gt;&lt;span style=&quot;color: #4b69c6;&quot;&gt;return&lt;/span&gt;&lt;span style=&quot;color: #333333;&quot;&gt; &lt;/span&gt;&lt;span style=&quot;color: #7a3e9d;font-weight: bold;&quot;&gt;pb2&lt;/span&gt;&lt;span style=&quot;color: #777777;&quot;&gt;.&lt;/span&gt;&lt;span style=&quot;color: #333333;&quot;&gt;GetUserResponse&lt;/span&gt;&lt;span style=&quot;color: #777777;&quot;&gt;(&lt;/span&gt;&lt;span style=&quot;color: #7a3e9d;&quot;&gt;username&lt;/span&gt;&lt;span style=&quot;color: #777777;&quot;&gt;=&lt;/span&gt;&lt;span style=&quot;color: #7a3e9d;&quot;&gt;username&lt;/span&gt;&lt;span style=&quot;color: #777777;&quot;&gt;,&lt;/span&gt;&lt;span style=&quot;color: #333333;&quot;&gt; &lt;/span&gt;&lt;span style=&quot;color: #7a3e9d;&quot;&gt;success&lt;/span&gt;&lt;span style=&quot;color: #777777;&quot;&gt;=&lt;/span&gt;&lt;span style=&quot;color: #9c5d27;&quot;&gt;True&lt;/span&gt;&lt;span style=&quot;color: #777777;&quot;&gt;)&lt;/span&gt;&lt;/div&gt;&lt;div&gt;&lt;span style=&quot;color: #333333;&quot;&gt;        &lt;/span&gt;&lt;span style=&quot;color: #4b69c6;&quot;&gt;else&lt;/span&gt;&lt;span style=&quot;color: #777777;&quot;&gt;:&lt;/span&gt;&lt;/div&gt;&lt;div&gt;&lt;span style=&quot;color: #333333;&quot;&gt;            &lt;/span&gt;&lt;span style=&quot;color: #4b69c6;&quot;&gt;return&lt;/span&gt;&lt;span style=&quot;color: #333333;&quot;&gt; &lt;/span&gt;&lt;span style=&quot;color: #7a3e9d;font-weight: bold;&quot;&gt;pb2&lt;/span&gt;&lt;span style=&quot;color: #777777;&quot;&gt;.&lt;/span&gt;&lt;span style=&quot;color: #333333;&quot;&gt;GetUserResponse&lt;/span&gt;&lt;span style=&quot;color: #777777;&quot;&gt;(&lt;/span&gt;&lt;span style=&quot;color: #7a3e9d;&quot;&gt;username&lt;/span&gt;&lt;span style=&quot;color: #777777;&quot;&gt;=&lt;/span&gt;&lt;span style=&quot;color: #777777;&quot;&gt;&quot;&quot;&lt;/span&gt;&lt;span style=&quot;color: #777777;&quot;&gt;,&lt;/span&gt;&lt;span style=&quot;color: #333333;&quot;&gt; &lt;/span&gt;&lt;span style=&quot;color: #7a3e9d;&quot;&gt;success&lt;/span&gt;&lt;span style=&quot;color: #777777;&quot;&gt;=&lt;/span&gt;&lt;span style=&quot;color: #9c5d27;&quot;&gt;False&lt;/span&gt;&lt;span style=&quot;color: #777777;&quot;&gt;)&lt;/span&gt;&lt;/div&gt;&lt;br&gt;&lt;div&gt;&lt;span style=&quot;color: #7a3e9d;&quot;&gt;def&lt;/span&gt;&lt;span style=&quot;color: #333333;&quot;&gt; &lt;/span&gt;&lt;span style=&quot;color: #aa3731;font-weight: bold;&quot;&gt;serve&lt;/span&gt;&lt;span style=&quot;color: #777777;&quot;&gt;():&lt;/span&gt;&lt;/div&gt;&lt;div&gt;&lt;span style=&quot;color: #333333;&quot;&gt;    &lt;/span&gt;&lt;span style=&quot;color: #7a3e9d;&quot;&gt;server&lt;/span&gt;&lt;span style=&quot;color: #333333;&quot;&gt; &lt;/span&gt;&lt;span style=&quot;color: #777777;&quot;&gt;=&lt;/span&gt;&lt;span style=&quot;color: #333333;&quot;&gt; &lt;/span&gt;&lt;span style=&quot;color: #7a3e9d;font-weight: bold;&quot;&gt;grpc&lt;/span&gt;&lt;span style=&quot;color: #777777;&quot;&gt;.&lt;/span&gt;&lt;span style=&quot;color: #aa3731;font-weight: bold;&quot;&gt;server&lt;/span&gt;&lt;span style=&quot;color: #777777;&quot;&gt;(&lt;/span&gt;&lt;span style=&quot;color: #7a3e9d;font-weight: bold;&quot;&gt;futures&lt;/span&gt;&lt;span style=&quot;color: #777777;&quot;&gt;.&lt;/span&gt;&lt;span style=&quot;color: #7a3e9d;font-weight: bold;&quot;&gt;ThreadPoolExecutor&lt;/span&gt;&lt;span style=&quot;color: #777777;&quot;&gt;(&lt;/span&gt;&lt;span style=&quot;color: #7a3e9d;&quot;&gt;max_workers&lt;/span&gt;&lt;span style=&quot;color: #777777;&quot;&gt;=&lt;/span&gt;&lt;span style=&quot;color: #9c5d27;&quot;&gt;5&lt;/span&gt;&lt;span style=&quot;color: #777777;&quot;&gt;))&lt;/span&gt;&lt;/div&gt;&lt;div&gt;&lt;span style=&quot;color: #333333;&quot;&gt;    &lt;/span&gt;&lt;span style=&quot;color: #7a3e9d;font-weight: bold;&quot;&gt;pb2_grpc&lt;/span&gt;&lt;span style=&quot;color: #777777;&quot;&gt;.&lt;/span&gt;&lt;span style=&quot;color: #aa3731;font-weight: bold;&quot;&gt;add_UserServiceServicer_to_server&lt;/span&gt;&lt;span style=&quot;color: #777777;&quot;&gt;(&lt;/span&gt;&lt;span style=&quot;color: #7a3e9d;font-weight: bold;&quot;&gt;UserService&lt;/span&gt;&lt;span style=&quot;color: #777777;&quot;&gt;(),&lt;/span&gt;&lt;span style=&quot;color: #333333;&quot;&gt; &lt;/span&gt;&lt;span style=&quot;color: #7a3e9d;&quot;&gt;server&lt;/span&gt;&lt;span style=&quot;color: #777777;&quot;&gt;)&lt;/span&gt;&lt;/div&gt;&lt;div&gt;&lt;span style=&quot;color: #333333;&quot;&gt;    &lt;/span&gt;&lt;span style=&quot;color: #7a3e9d;&quot;&gt;server&lt;/span&gt;&lt;span style=&quot;color: #777777;&quot;&gt;.&lt;/span&gt;&lt;span style=&quot;color: #aa3731;font-weight: bold;&quot;&gt;add_insecure_port&lt;/span&gt;&lt;span style=&quot;color: #777777;&quot;&gt;(&lt;/span&gt;&lt;span style=&quot;color: #777777;&quot;&gt;&#39;&lt;/span&gt;&lt;span style=&quot;color: #448c27;&quot;&gt;[::]:50051&lt;/span&gt;&lt;span style=&quot;color: #777777;&quot;&gt;&#39;&lt;/span&gt;&lt;span style=&quot;color: #777777;&quot;&gt;)&lt;/span&gt;&lt;/div&gt;&lt;div&gt;&lt;span style=&quot;color: #333333;&quot;&gt;    &lt;/span&gt;&lt;span style=&quot;color: #7a3e9d;&quot;&gt;server&lt;/span&gt;&lt;span style=&quot;color: #777777;&quot;&gt;.&lt;/span&gt;&lt;span style=&quot;color: #aa3731;font-weight: bold;&quot;&gt;start&lt;/span&gt;&lt;span style=&quot;color: #777777;&quot;&gt;()&lt;/span&gt;&lt;/div&gt;&lt;div&gt;&lt;span style=&quot;color: #333333;&quot;&gt;    &lt;/span&gt;&lt;span style=&quot;color: #7a3e9d;&quot;&gt;server&lt;/span&gt;&lt;span style=&quot;color: #777777;&quot;&gt;.&lt;/span&gt;&lt;span style=&quot;color: #aa3731;font-weight: bold;&quot;&gt;wait_for_termination&lt;/span&gt;&lt;span style=&quot;color: #777777;&quot;&gt;()&lt;/span&gt;&lt;/div&gt;&lt;br&gt;&lt;div&gt;&lt;span style=&quot;color: #4b69c6;&quot;&gt;if&lt;/span&gt;&lt;span style=&quot;color: #333333;&quot;&gt; &lt;/span&gt;&lt;span style=&quot;color: #7a3e9d;&quot;&gt;__name__&lt;/span&gt;&lt;span style=&quot;color: #333333;&quot;&gt; &lt;/span&gt;&lt;span style=&quot;color: #777777;&quot;&gt;==&lt;/span&gt;&lt;span style=&quot;color: #333333;&quot;&gt; &lt;/span&gt;&lt;span style=&quot;color: #777777;&quot;&gt;&#39;&lt;/span&gt;&lt;span style=&quot;color: #448c27;&quot;&gt;__main__&lt;/span&gt;&lt;span style=&quot;color: #777777;&quot;&gt;&#39;&lt;/span&gt;&lt;span style=&quot;color: #777777;&quot;&gt;:&lt;/span&gt;&lt;/div&gt;&lt;div&gt;&lt;span style=&quot;color: #333333;&quot;&gt;    &lt;/span&gt;&lt;span style=&quot;color: #aa3731;font-weight: bold;&quot;&gt;serve&lt;/span&gt;&lt;span style=&quot;color: #777777;&quot;&gt;()&lt;/span&gt;&lt;/div&gt;&lt;/div&gt;" id="FVYLcM5FndVhA9IFcM8y-3">
          <mxCell style="text;whiteSpace=wrap;html=1;" vertex="1" parent="1">
            <mxGeometry x="520" y="10" width="530" height="540" as="geometry" />
          </mxCell>
        </UserObject>
      </root>
    </mxGraphModel>
  </diagram>
</mxfile>
